<svg id="visual" viewBox="0 0 1920 1080" width="1920" height="1080" xmlns="http://www.w3.org/2000/svg" xmlns:xlink="http://www.w3.org/1999/xlink" version="1.1"><rect x="0" y="0" width="1920" height="1080" fill="#27293d"></rect><path d="M0 670L45.7 692.8C91.3 715.7 182.7 761.3 274.2 774.8C365.7 788.3 457.3 769.7 548.8 765.3C640.3 761 731.7 771 823 759.7C914.3 748.3 1005.7 715.7 1097 712.7C1188.3 709.7 1279.7 736.3 1371.2 735C1462.7 733.7 1554.3 704.3 1645.8 692.8C1737.3 681.3 1828.7 687.7 1874.3 690.8L1920 694L1920 1081L1874.3 1081C1828.7 1081 1737.3 1081 1645.8 1081C1554.3 1081 1462.7 1081 1371.2 1081C1279.7 1081 1188.3 1081 1097 1081C1005.7 1081 914.3 1081 823 1081C731.7 1081 640.3 1081 548.8 1081C457.3 1081 365.7 1081 274.2 1081C182.7 1081 91.3 1081 45.7 1081L0 1081Z" fill="#27293d"></path><path d="M0 803L45.7 809.7C91.3 816.3 182.7 829.7 274.2 834.2C365.7 838.7 457.3 834.3 548.8 816.3C640.3 798.3 731.7 766.7 823 749.5C914.3 732.3 1005.7 729.7 1097 729.2C1188.3 728.7 1279.7 730.3 1371.2 728.8C1462.7 727.3 1554.3 722.7 1645.8 736C1737.3 749.3 1828.7 780.7 1874.3 796.3L1920 812L1920 1081L1874.3 1081C1828.7 1081 1737.3 1081 1645.8 1081C1554.3 1081 1462.7 1081 1371.2 1081C1279.7 1081 1188.3 1081 1097 1081C1005.7 1081 914.3 1081 823 1081C731.7 1081 640.3 1081 548.8 1081C457.3 1081 365.7 1081 274.2 1081C182.7 1081 91.3 1081 45.7 1081L0 1081Z" fill="#423a68"></path><path d="M0 823L45.7 830.7C91.3 838.3 182.7 853.7 274.2 857.3C365.7 861 457.3 853 548.8 842.5C640.3 832 731.7 819 823 816.8C914.3 814.7 1005.7 823.3 1097 829C1188.3 834.7 1279.7 837.3 1371.2 836.2C1462.7 835 1554.3 830 1645.8 827.7C1737.3 825.3 1828.7 825.7 1874.3 825.8L1920 826L1920 1081L1874.3 1081C1828.7 1081 1737.3 1081 1645.8 1081C1554.3 1081 1462.7 1081 1371.2 1081C1279.7 1081 1188.3 1081 1097 1081C1005.7 1081 914.3 1081 823 1081C731.7 1081 640.3 1081 548.8 1081C457.3 1081 365.7 1081 274.2 1081C182.7 1081 91.3 1081 45.7 1081L0 1081Z" fill="#6c4890"></path><path d="M0 928L45.7 926C91.3 924 182.7 920 274.2 911.2C365.7 902.3 457.3 888.7 548.8 885.7C640.3 882.7 731.7 890.3 823 894C914.3 897.7 1005.7 897.3 1097 899.3C1188.3 901.3 1279.7 905.7 1371.2 904.2C1462.7 902.7 1554.3 895.3 1645.8 890C1737.3 884.7 1828.7 881.3 1874.3 879.7L1920 878L1920 1081L1874.3 1081C1828.7 1081 1737.3 1081 1645.8 1081C1554.3 1081 1462.7 1081 1371.2 1081C1279.7 1081 1188.3 1081 1097 1081C1005.7 1081 914.3 1081 823 1081C731.7 1081 640.3 1081 548.8 1081C457.3 1081 365.7 1081 274.2 1081C182.7 1081 91.3 1081 45.7 1081L0 1081Z" fill="#a24fb2"></path><path d="M0 961L45.7 960.8C91.3 960.7 182.7 960.3 274.2 971.2C365.7 982 457.3 1004 548.8 1006.8C640.3 1009.7 731.7 993.3 823 991C914.3 988.7 1005.7 1000.3 1097 1002.8C1188.3 1005.3 1279.7 998.7 1371.2 993.2C1462.7 987.7 1554.3 983.3 1645.8 984.2C1737.3 985 1828.7 991 1874.3 994L1920 997L1920 1081L1874.3 1081C1828.7 1081 1737.3 1081 1645.8 1081C1554.3 1081 1462.7 1081 1371.2 1081C1279.7 1081 1188.3 1081 1097 1081C1005.7 1081 914.3 1081 823 1081C731.7 1081 640.3 1081 548.8 1081C457.3 1081 365.7 1081 274.2 1081C182.7 1081 91.3 1081 45.7 1081L0 1081Z" fill="#e14eca"></path></svg>