<svg id="visual" viewBox="0 0 600 900" width="600" height="900" xmlns="http://www.w3.org/2000/svg" xmlns:xlink="http://www.w3.org/1999/xlink" version="1.1"><rect x="0" y="0" width="600" height="900" fill="#27293d"></rect><path d="M0 558L14.3 577C28.7 596 57.3 634 85.8 645.3C114.3 656.7 142.7 641.3 171.2 637.7C199.7 634 228.3 642 257 632.5C285.7 623 314.3 596 343 593.7C371.7 591.3 400.3 613.7 428.8 612.7C457.3 611.7 485.7 587.3 514.2 577.7C542.7 568 571.3 573 585.7 575.5L600 578L600 901L585.7 901C571.3 901 542.7 901 514.2 901C485.7 901 457.3 901 428.8 901C400.3 901 371.7 901 343 901C314.3 901 285.7 901 257 901C228.3 901 199.7 901 171.2 901C142.7 901 114.3 901 85.8 901C57.3 901 28.7 901 14.3 901L0 901Z" fill="#27293d"></path><path d="M0 669L14.3 674.5C28.7 680 57.3 691 85.8 694.8C114.3 698.7 142.7 695.3 171.2 680.3C199.7 665.3 228.3 638.7 257 624.2C285.7 609.7 314.3 607.3 343 607C371.7 606.7 400.3 608.3 428.8 607.2C457.3 606 485.7 602 514.2 613.2C542.7 624.3 571.3 650.7 585.7 663.8L600 677L600 901L585.7 901C571.3 901 542.7 901 514.2 901C485.7 901 457.3 901 428.8 901C400.3 901 371.7 901 343 901C314.3 901 285.7 901 257 901C228.3 901 199.7 901 171.2 901C142.7 901 114.3 901 85.8 901C57.3 901 28.7 901 14.3 901L0 901Z" fill="#423a68"></path><path d="M0 686L14.3 692.3C28.7 698.7 57.3 711.3 85.8 714.3C114.3 717.3 142.7 710.7 171.2 701.8C199.7 693 228.3 682 257 680.2C285.7 678.3 314.3 685.7 343 690.5C371.7 695.3 400.3 697.7 428.8 696.7C457.3 695.7 485.7 691.3 514.2 689.3C542.7 687.3 571.3 687.7 585.7 687.8L600 688L600 901L585.7 901C571.3 901 542.7 901 514.2 901C485.7 901 457.3 901 428.8 901C400.3 901 371.7 901 343 901C314.3 901 285.7 901 257 901C228.3 901 199.7 901 171.2 901C142.7 901 114.3 901 85.8 901C57.3 901 28.7 901 14.3 901L0 901Z" fill="#6c4890"></path><path d="M0 773L14.3 771.3C28.7 769.7 57.3 766.3 85.8 759C114.3 751.7 142.7 740.3 171.2 737.8C199.7 735.3 228.3 741.7 257 744.7C285.7 747.7 314.3 747.3 343 749.2C371.7 751 400.3 755 428.8 753.8C457.3 752.7 485.7 746.3 514.2 741.8C542.7 737.3 571.3 734.7 585.7 733.3L600 732L600 901L585.7 901C571.3 901 542.7 901 514.2 901C485.7 901 457.3 901 428.8 901C400.3 901 371.7 901 343 901C314.3 901 285.7 901 257 901C228.3 901 199.7 901 171.2 901C142.7 901 114.3 901 85.8 901C57.3 901 28.7 901 14.3 901L0 901Z" fill="#a24fb2"></path><path d="M0 800L14.3 800C28.7 800 57.3 800 85.8 809.2C114.3 818.3 142.7 836.7 171.2 839C199.7 841.3 228.3 827.7 257 825.7C285.7 823.7 314.3 833.3 343 835.3C371.7 837.3 400.3 831.7 428.8 827.2C457.3 822.7 485.7 819.3 514.2 820C542.7 820.7 571.3 825.3 585.7 827.7L600 830L600 901L585.7 901C571.3 901 542.7 901 514.2 901C485.7 901 457.3 901 428.8 901C400.3 901 371.7 901 343 901C314.3 901 285.7 901 257 901C228.3 901 199.7 901 171.2 901C142.7 901 114.3 901 85.8 901C57.3 901 28.7 901 14.3 901L0 901Z" fill="#e14eca"></path></svg>